<svg width="36" height="36" viewBox="0 0 36 36" fill="none" xmlns="http://www.w3.org/2000/svg">
<mask id="mask0_74_226" style="mask-type:luminance" maskUnits="userSpaceOnUse" x="0" y="0" width="36" height="36">
<path d="M18 3.2428C13.1937 3.2428 12.6244 3.2608 10.7262 3.34749C8.97106 3.42756 8.018 3.72048 7.38379 3.96717C6.54321 4.29392 5.94384 4.68347 5.31394 5.31336C4.68419 5.94326 4.29378 6.54277 3.96774 7.38321C3.72105 8.01742 3.42814 8.97048 3.34807 10.7257C3.26152 12.6238 3.24337 13.193 3.24337 17.9994C3.24337 22.8059 3.26138 23.3749 3.34807 25.273C3.42814 27.0282 3.72105 27.9813 3.96774 28.6155C4.2945 29.4561 4.68404 30.0554 5.31394 30.6853C5.94384 31.3151 6.54335 31.7055 7.38379 32.0315C8.018 32.2782 8.97106 32.5711 10.7262 32.6512C12.6243 32.7378 13.1935 32.7559 18 32.7559C22.8065 32.7559 23.3754 32.7379 25.2736 32.6512C27.0288 32.5711 27.9819 32.2782 28.6161 32.0315C29.4567 31.7046 30.056 31.3151 30.6859 30.6853C31.3157 30.0554 31.7061 29.4559 32.0321 28.6155C32.2789 27.9813 32.5717 27.0282 32.6518 25.273C32.7383 23.375 32.7565 22.8057 32.7565 17.9994C32.7565 13.1931 32.7385 12.624 32.6518 10.7257C32.5717 8.97048 32.2788 8.01742 32.0321 7.38321C31.7054 6.54263 31.3158 5.94326 30.6859 5.31336C30.056 4.68361 29.4565 4.2932 28.6161 3.96717C27.9819 3.72048 27.0288 3.42756 25.2736 3.34749C23.3756 3.26166 22.8063 3.2428 18 3.2428ZM18 0C22.8885 0 23.5017 0.0208813 25.4215 0.108151C27.3377 0.195421 28.6457 0.5 29.7906 0.944988C30.9745 1.40524 31.978 2.02074 32.9787 3.02131C33.9793 4.02203 34.5953 5.02549 35.055 6.20939C35.5001 7.35441 35.8046 8.66302 35.8918 10.5785C35.9791 12.4984 36 13.1116 36 18C36 22.8884 35.9791 23.5017 35.8918 25.4215C35.8046 27.3377 35.5 28.6457 35.055 29.7906C34.5948 30.9745 33.9793 31.978 32.9787 32.9787C31.978 33.9794 30.9738 34.5948 29.7906 35.055C28.6456 35.5001 27.337 35.8046 25.4215 35.8918C23.5017 35.9791 22.8885 36 18 36C13.1115 36 12.4983 35.9791 10.5785 35.8918C8.6623 35.8046 7.35427 35.5 6.20939 35.055C5.02549 34.5946 4.02204 33.9793 3.02132 32.9787C2.0206 31.978 1.40524 30.9738 0.944992 29.7906C0.499859 28.6457 0.195423 27.337 0.10815 25.4215C0.0208817 23.5017 0 22.8885 0 18C0 13.1115 0.0208817 12.4983 0.10815 10.5785C0.195423 8.6623 0.500004 7.35426 0.944992 6.20939C1.40539 5.02549 2.02074 4.02203 3.02132 3.02131C4.02204 2.02074 5.02621 1.40524 6.20939 0.944988C7.35427 0.499856 8.66302 0.195421 10.5785 0.108151C12.4981 0.0208813 13.1115 0 18 0ZM18 8.75691C23.105 8.75691 27.2431 12.895 27.2431 18C27.2431 23.105 23.105 27.2432 18 27.2432C12.895 27.2432 8.75677 23.105 8.75677 18C8.75677 12.895 12.895 8.75691 18 8.75691ZM18 24.0004C21.3135 24.0004 24.0003 21.3145 24.0003 18.0001C24.0003 14.6858 21.3135 11.9999 18 11.9999C14.6865 11.9999 11.9997 14.6858 11.9997 18.0001C11.9997 21.3145 14.6865 24.0004 18 24.0004ZM8.39171 6.23185C9.58497 6.23185 10.5517 7.19859 10.5517 8.39185C10.5517 9.58511 9.58497 10.552 8.39171 10.552C7.19845 10.552 6.23157 9.58511 6.23157 8.39185C6.23157 7.19859 7.1983 6.23185 8.39171 6.23185Z" fill="white"/>
</mask>
<g mask="url(#mask0_74_226)">
<rect width="56.1636" height="56.1636" transform="matrix(-1 0 0 1 46.1277 -10.1274)" fill="#D6D85C"/>
</g>
</svg>
