<?xml version="1.0" encoding="utf-8"?>
<!-- Generator: Adobe Illustrator 27.9.2, SVG Export Plug-In . SVG Version: 6.00 Build 0)  -->
<svg version="1.1"
	 id="svg64" xmlns:cc="http://creativecommons.org/ns#" xmlns:rdf="http://www.w3.org/1999/02/22-rdf-syntax-ns#" xmlns:dc="http://purl.org/dc/elements/1.1/" xmlns:sodipodi="http://sodipodi.sourceforge.net/DTD/sodipodi-0.dtd" xmlns:inkscape="http://www.inkscape.org/namespaces/inkscape" xmlns:svg="http://www.w3.org/2000/svg" inkscape:version="0.92.2 2405546, 2018-03-11" sodipodi:docname="Javascript-shield.svg"
	 xmlns="http://www.w3.org/2000/svg" xmlns:xlink="http://www.w3.org/1999/xlink" x="0px" y="0px" viewBox="0 0 397.3 450.2"
	 style="enable-background:new 0 0 397.3 450.2;" xml:space="preserve">
<style type="text/css">
	.st0{fill:#FFFFFF;}
	.st1{fill:#EAEBEC;}
	.st2{fill:#F0BE25;}
	.st3{fill:#E4A126;}
</style>
<sodipodi:namedview  bordercolor="#666666" borderopacity="1" fit-margin-bottom="0" fit-margin-left="0" fit-margin-right="0" fit-margin-top="0" gridtolerance="10" guidetolerance="10" id="namedview66" inkscape:current-layer="svg64" inkscape:cx="364.99449" inkscape:cy="300.83113" inkscape:pageopacity="0" inkscape:pageshadow="2" inkscape:window-height="1016" inkscape:window-maximized="1" inkscape:window-width="1920" inkscape:window-x="0" inkscape:window-y="27" inkscape:zoom="1.0628712" objecttolerance="10" pagecolor="#ffffff" showgrid="false">
	</sodipodi:namedview>
<path id="path118" inkscape:connector-curvature="0" class="st0" d="M1.3,0l0.1,5c0,2.8,8,93.8,17.7,202.3l17.6,197.3l79.3,22.2
	c43.6,12.2,80.2,22.3,81.3,22.3c1.1,0.1,38.2-9.9,82.4-22.1c70.9-19.6,80.4-22.6,80.9-25C361.4,398.7,396.1,7.2,396,3l0-3H198.7H1.3
	z"/>
<path id="path88" inkscape:connector-curvature="0" sodipodi:nodetypes="sccsssccsscsccccccccsscscssscsscccsccsscccc" class="st1" d="
	M116.7,428.2l-80-22.4l-1-5.9C34.7,394.7,0,7.2,0,2.1C0,0.2,20.3,0,198.7,0C387,0,397.3,0.1,397.3,2.3c-0.1,9.6-36,402.2-36.9,402.9
	c-1.1,1-156,44.1-161.1,44.9C197.9,450.4,160.7,440.5,116.7,428.2L116.7,428.2z M249.1,349.2c26.9-7.4,49.3-13.9,49.8-14.3
	s3.6-32.3,7-70.8s6.5-72.5,6.9-75.7l0.8-5.7h-58.1h-58.1v24.7V232h31.4h31.4l-0.6,3c-0.3,1.6-1.7,15.8-3,31.5
	c-1.4,16.6-3,29.2-3.9,30c-0.8,0.8-13.6,4.8-28.4,8.7l-26.9,7.2v25.1c0,17.2,0.5,25.1,1.4,25.1C199.6,362.7,222.2,356.6,249.1,349.2
	L249.1,349.2z M312.7,151.7c-0.9-6.5-8.7-94.2-8.7-97.5c0-2-4.6-2.2-52.7-2.2h-52.7v25.8v25.8l23.7,0.9c13,0.5,26.7,1.3,30.4,1.7
	l6.8,0.8l1.6,20.2c0.9,11.1,2,22.4,2.4,25.2l0.8,5h24.6h24.6L312.7,151.7z"/>
<path id="path80" inkscape:connector-curvature="0" sodipodi:nodetypes="ccsccccccscccccscscsccsssccscscssccccsccscsscccccccc" class="st2" d="
	M116,426.9l-79.3-22.2L19.1,207.3C9.4,98.8,1.4,7.8,1.4,5L1.3,0h197.3H396l0,3c0,4.2-34.7,395.7-35.4,399.1
	c-0.5,2.4-10.1,5.4-80.9,25c-44.2,12.2-81.3,22.2-82.4,22.1C196.2,449.1,159.7,439.1,116,426.9L116,426.9z M249.2,350.1
	c27.4-7.6,50.2-14.5,50.7-15.3c0.5-0.8,3.8-34.3,7.3-74.5s6.7-74.1,7.1-75.4c0.6-2.2-4.1-2.3-84.5-2.3h-85.2l3.6-38.3
	c2-21.1,3.7-38.4,3.7-38.5c0.1-0.1,12.6-0.5,27.8-0.9c25-0.7,76.4,1.3,78.1,3c0.6,0.6,4.9,42.2,4.9,47.8c0,2.8,0.4,2.8,25.8,2.8
	h25.8l-0.6-5.7c-0.3-3.1-2.5-27.3-4.9-53.7l-4.3-48L205,51c-79.3-0.3-99.6,0-99.7,1.3c0,0.9-0.6,6.8-1.3,13
	c-1.7,15.1-14.7,160.8-14.7,164.8v3.2h84.8h84.8l-0.8,5c-0.4,2.8-1.7,16.7-2.9,31s-2.6,26.4-3,26.8c-1.2,1.2-51.1,14.5-54.2,14.5
	c-1.4,0-14.3-3.2-28.6-7.1l-26-7.1l-1-11.2c-0.5-6.2-1.3-14.9-1.8-19.5l-0.8-8.3h-25.2H89.3l0.1,5c0.1,9.4,6.2,72.3,7,73.2
	c1,1,97.9,28.3,100.9,28.4C198.4,364,221.8,357.7,249.2,350.1L249.2,350.1z"/>
<path id="path78" inkscape:connector-curvature="0" sodipodi:nodetypes="ccsccccccscccscccccccscsscccscscsscccccscsssscscccccs" class="st3" d="
	M116,426.9l-79.3-22.2L19.1,207.3C9.4,98.8,1.4,7.8,1.4,5L1.3,0h197.3H396l0,3c0,4.2-34.7,395.7-35.4,399.1
	c-0.5,2.4-10.1,5.4-80.9,25c-44.2,12.2-81.3,22.2-82.4,22.1C196.2,449.1,159.7,439.1,116,426.9L116,426.9z M263.9,397.2
	c34.9-9.6,64.1-18.2,64.9-19c1.2-1.3,31.4-331.5,31.3-342.5l0-3.7h-80.7h-80.7v9.3v9.3H152c-36.4,0-46.7,0.4-46.7,1.7
	c0,0.9-0.6,6.8-1.3,13c-1.7,15.1-14.7,160.8-14.7,164.8v3.2H144h54.7V272c0,30.1-0.4,38.7-1.7,38.6c-0.9,0-13.4-3.2-27.7-7.1
	l-26-7.1l-1-11.2c-0.5-6.2-1.3-14.9-1.8-19.5l-0.8-8.3h-25.2H89.3l0.1,5c0.2,14.3,6.3,72.7,7.8,73.6c0.9,0.5,24.1,7.2,51.5,14.8
	l49.9,13.8v25.1c0,13.8,0.4,25.1,0.9,25.1C200.1,414.7,229,406.8,263.9,397.2L263.9,397.2z M148,144.7c1.9-20.9,3.7-38.2,4.1-38.5
	c0.3-0.3,10.9-0.8,23.6-1.2l23-0.6v39.1v39.1h-27.1h-27.1L148,144.7z"/>
</svg>
