<svg width="81" height="81" viewBox="0 0 81 81" fill="none" xmlns="http://www.w3.org/2000/svg">
<circle cx="40.5" cy="40.5" r="40.5" fill="#1F1F1F"/>
<path d="M21.0003 57.7992L40.7993 38.0002L60.5983 57.7992" stroke="white"/>
<path d="M31.9382 19.095V19.704H28.4592V29H27.7452V19.704H24.2452V19.095H31.9382ZM44.4597 24.044C44.4597 24.8093 44.3454 25.5047 44.1167 26.13C43.888 26.7507 43.566 27.2827 43.1507 27.726C42.7354 28.1647 42.2384 28.5053 41.6597 28.748C41.081 28.986 40.4394 29.105 39.7347 29.105C39.0394 29.105 38.4024 28.986 37.8237 28.748C37.245 28.5053 36.748 28.1647 36.3327 27.726C35.9174 27.2827 35.593 26.7507 35.3597 26.13C35.131 25.5047 35.0167 24.8093 35.0167 24.044C35.0167 23.2833 35.131 22.5927 35.3597 21.972C35.593 21.3467 35.9174 20.8147 36.3327 20.376C36.748 19.9327 37.245 19.5897 37.8237 19.347C38.4024 19.1043 39.0394 18.983 39.7347 18.983C40.4394 18.983 41.081 19.1043 41.6597 19.347C42.2384 19.585 42.7354 19.9257 43.1507 20.369C43.566 20.8123 43.888 21.3467 44.1167 21.972C44.3454 22.5927 44.4597 23.2833 44.4597 24.044ZM43.7177 24.044C43.7177 23.3533 43.622 22.7327 43.4307 22.182C43.2394 21.6313 42.9687 21.1647 42.6187 20.782C42.2734 20.3993 41.8557 20.1077 41.3657 19.907C40.8757 19.7017 40.332 19.599 39.7347 19.599C39.1467 19.599 38.6077 19.7017 38.1177 19.907C37.6324 20.1077 37.2124 20.3993 36.8577 20.782C36.5077 21.1647 36.2347 21.6313 36.0387 22.182C35.8474 22.7327 35.7517 23.3533 35.7517 24.044C35.7517 24.7393 35.8474 25.3623 36.0387 25.913C36.2347 26.459 36.5077 26.9233 36.8577 27.306C37.2124 27.6887 37.6324 27.9803 38.1177 28.181C38.6077 28.3817 39.1467 28.482 39.7347 28.482C40.332 28.482 40.8757 28.3817 41.3657 28.181C41.8557 27.9803 42.2734 27.6887 42.6187 27.306C42.9687 26.9233 43.2394 26.459 43.4307 25.913C43.622 25.3623 43.7177 24.7393 43.7177 24.044ZM50.5196 25.01V29H49.8056V19.095H52.3606C53.5226 19.095 54.3976 19.3493 54.9856 19.858C55.5783 20.3667 55.8746 21.0923 55.8746 22.035C55.8746 22.469 55.793 22.868 55.6296 23.232C55.471 23.596 55.24 23.911 54.9366 24.177C54.6333 24.4383 54.2646 24.6437 53.8306 24.793C53.3966 24.9377 52.9066 25.01 52.3606 25.01H50.5196ZM50.5196 24.436H52.3606C52.7993 24.436 53.1913 24.3753 53.5366 24.254C53.882 24.1327 54.1736 23.9647 54.4116 23.75C54.6543 23.5353 54.8386 23.2833 54.9646 22.994C55.0953 22.7 55.1606 22.3803 55.1606 22.035C55.1606 21.2743 54.925 20.6887 54.4536 20.278C53.987 19.8673 53.2893 19.662 52.3606 19.662H50.5196V24.436Z" fill="white"/>
</svg>
